<svg width="174" height="83" viewBox="0 0 174 83" fill="none" xmlns="http://www.w3.org/2000/svg">
<path d="M95 32L94.2424 31.3473L95 32ZM173.061 9.82771C173.518 9.51779 173.638 8.89597 173.328 8.43884L168.277 0.989465C167.967 0.532335 167.346 0.412996 166.888 0.722915C166.431 1.03283 166.312 1.65465 166.622 2.11178L171.111 8.73345L164.489 13.2227C164.032 13.5326 163.913 14.1545 164.223 14.6116C164.533 15.0687 165.155 15.1881 165.612 14.8781L173.061 9.82771ZM0.747674 82.4688C2.35234 82.0586 4.09999 81.5855 5.96994 81.0509L5.42025 79.128C3.5668 79.6578 1.83732 80.126 0.252326 80.5312L0.747674 82.4688ZM16.3327 77.8446C19.5722 76.7714 22.9996 75.5729 26.5515 74.2536L25.8551 72.3788C22.3262 73.6896 18.9212 74.8802 15.7038 75.946L16.3327 77.8446ZM36.6425 70.3003C39.9188 68.9482 43.2465 67.5058 46.5823 65.9761L45.7486 64.1582C42.4378 65.6764 39.1337 67.1086 35.8795 68.4516L36.6425 70.3003ZM56.3413 61.2462C59.5626 59.5947 62.7524 57.8629 65.8706 56.0536L64.8669 54.3237C61.7813 56.114 58.6222 57.8293 55.4289 59.4665L56.3413 61.2462ZM75.0932 50.3141C78.1606 48.2599 81.107 46.1227 83.8861 43.9055L82.6389 42.3421C79.9082 44.5206 77.0072 46.6252 73.9803 48.6523L75.0932 50.3141ZM92.0382 36.6552C93.3452 35.3449 94.5877 34.0106 95.7576 32.6527L94.2424 31.3473C93.1066 32.6656 91.8975 33.9643 90.6222 35.2427L92.0382 36.6552ZM95.7576 32.6527C96.9009 31.3257 98.0871 30.067 99.3111 28.8736L97.9149 27.4417C96.6501 28.6749 95.4241 29.9757 94.2424 31.3473L95.7576 32.6527ZM107.315 22.2987C110.2 20.3058 113.208 18.5776 116.29 17.0851L115.418 15.2851C112.251 16.819 109.153 18.598 106.178 20.6532L107.315 22.2987ZM125.939 13.209C129.295 12.1116 132.674 11.2439 136.016 10.5716L135.622 8.61082C132.209 9.2973 128.754 10.1843 125.317 11.3081L125.939 13.209ZM146.341 9.06147C149.977 8.71999 153.482 8.58414 156.768 8.60245L156.779 6.60248C153.431 6.58383 149.859 6.72223 146.154 7.07023L146.341 9.06147ZM167.176 9.20713C169.064 9.42468 170.786 9.68938 172.312 9.98208L172.688 8.01792C171.11 7.71497 169.338 7.443 167.404 7.22027L167.176 9.20713Z" fill="black"/>
</svg>
