<svg width="132" height="253" viewBox="0 0 132 253" fill="none" xmlns="http://www.w3.org/2000/svg">
<path d="M84 139.5L83.0002 139.478L84 139.5ZM131.72 8.19437C132.103 7.79693 132.092 7.16387 131.694 6.78038L125.218 0.531058C124.82 0.147569 124.187 0.158874 123.804 0.556308C123.42 0.953743 123.432 1.58681 123.829 1.9703L129.586 7.52525L124.031 13.2822C123.648 13.6796 123.659 14.3127 124.056 14.6962C124.454 15.0797 125.087 15.0684 125.47 14.6709L131.72 8.19437ZM0.975163 252C2.53011 252.038 4.1719 252.004 5.88583 251.89L5.75221 249.894C4.09671 250.005 2.51613 250.037 1.02484 250L0.975163 252ZM15.5995 250.471C18.6301 249.797 21.7789 248.885 24.9888 247.702L24.297 245.825C21.1724 246.978 18.1098 247.864 15.1655 248.518L15.5995 250.471ZM33.9271 243.736C36.7257 242.274 39.5309 240.59 42.3073 238.664L41.1673 237.021C38.461 238.899 35.7273 240.539 33.0011 241.963L33.9271 243.736ZM49.9822 232.615C52.3389 230.516 54.6475 228.215 56.8839 225.699L55.3892 224.371C53.2047 226.828 50.951 229.074 48.6517 231.122L49.9822 232.615ZM62.9599 218.052C64.7836 215.483 66.5343 212.739 68.1961 209.811L66.4567 208.824C64.8279 211.694 63.1133 214.381 61.329 216.894L62.9599 218.052ZM72.6164 201.095C73.9061 198.237 75.1169 195.234 76.2384 192.079L74.3539 191.409C73.2505 194.514 72.0601 197.466 70.7935 200.272L72.6164 201.095ZM79.1537 182.779C79.9828 179.752 80.7355 176.605 81.4045 173.331L79.445 172.93C78.7845 176.162 78.042 179.267 77.2248 182.25L79.1537 182.779ZM83.0698 163.721C83.5162 160.615 83.8921 157.407 84.1927 154.095L82.2008 153.914C81.9033 157.192 81.5314 160.366 81.0901 163.437L83.0698 163.721ZM84.839 144.421C84.9095 142.811 84.9633 141.178 84.9998 139.522L83.0002 139.478C82.9641 141.119 82.9108 142.738 82.8409 144.333L84.839 144.421ZM84.9998 139.522C85.0382 137.775 85.0734 136.052 85.1055 134.35L83.1059 134.312C83.0738 136.012 83.0387 137.734 83.0002 139.478L84.9998 139.522ZM85.268 124.147C85.3137 120.644 85.3479 117.244 85.3739 113.945L83.3739 113.929C83.348 117.225 83.3138 120.622 83.2681 124.121L85.268 124.147ZM85.4321 103.753C85.4453 100.239 85.452 96.8515 85.4566 93.5858L83.4566 93.583C83.452 96.848 83.4453 100.234 83.4321 103.745L85.4321 103.753ZM85.47 83.3572C85.4763 79.7954 85.4866 76.3985 85.5082 73.1584L83.5083 73.145C83.4866 76.3899 83.4763 79.7906 83.47 83.3536L85.47 83.3572ZM85.6319 62.9749C85.7014 59.3673 85.8012 55.9921 85.9456 52.834L83.9477 52.7427C83.8023 55.923 83.702 59.3166 83.6322 62.9364L85.6319 62.9749ZM86.6491 42.7033C87.019 38.9938 87.5052 35.6814 88.1434 32.723L86.1884 32.3013C85.5301 35.3528 85.0341 38.7432 84.659 42.5049L86.6491 42.7033ZM91.2664 23.3157C92.8201 20.193 94.7864 17.7208 97.2808 15.7575L96.0438 14.1859C93.2942 16.3501 91.148 19.0639 89.4758 22.4248L91.2664 23.3157ZM106.026 11.3883C108.861 10.517 112.104 9.87643 115.821 9.42048L115.577 7.43536C111.78 7.90118 108.416 8.56144 105.439 9.47661L106.026 11.3883ZM125.941 8.64552C127.567 8.57902 129.258 8.53126 131.018 8.49984L130.982 6.50016C129.209 6.53182 127.502 6.57997 125.859 6.64719L125.941 8.64552Z" fill="black"/>
</svg>
