<svg width="197" height="99" viewBox="0 0 197 99" fill="none" xmlns="http://www.w3.org/2000/svg">
<path d="M196.877 85.48C197.142 84.9955 196.965 84.3878 196.48 84.1227L188.585 79.8026C188.1 79.5375 187.492 79.7154 187.227 80.1999C186.962 80.6844 187.14 81.2921 187.625 81.5572L194.643 85.3973L190.803 92.4153C190.538 92.8998 190.715 93.5075 191.2 93.7726C191.684 94.0377 192.292 93.8599 192.557 93.3754L196.877 85.48ZM0.00286142 0.575595C0.130073 2.25358 0.30997 3.97684 0.545426 5.73792L2.52779 5.47288C2.2973 3.74896 2.12141 2.06367 1.99714 0.424405L0.00286142 0.575595ZM2.46364 15.9477C3.25105 19.2098 4.22293 22.5456 5.39479 25.916L7.28386 25.2591C6.13373 21.9513 5.18015 18.6781 4.40781 15.4784L2.46364 15.9477ZM9.27733 35.5554C10.697 38.641 12.2937 41.725 14.0789 44.778L15.8054 43.7684C14.0541 40.7735 12.4875 37.7475 11.0942 34.7195L9.27733 35.5554ZM19.7567 53.4652C21.7586 56.2165 23.9324 58.9169 26.2873 61.5428L27.7763 60.2076C25.4679 57.6335 23.3368 54.9862 21.3739 52.2885L19.7567 53.4652ZM33.6257 68.9219C36.138 71.1998 38.813 73.3942 41.658 75.4865L42.8429 73.8753C40.0537 71.824 37.4315 69.6729 34.9691 67.4402L33.6257 68.9219ZM50.3387 81.2201C53.2445 82.9378 56.2977 84.5549 59.5038 86.0575L60.3525 84.2465C57.204 82.7709 54.2072 81.1836 51.3565 79.4984L50.3387 81.2201ZM69.1112 90.0357C72.2765 91.1839 75.5705 92.2273 78.9973 93.1557L79.5203 91.2252C76.1464 90.3112 72.9054 89.2845 69.7932 88.1556L69.1112 90.0357ZM89.0801 95.4723C92.3805 96.1013 95.7906 96.6298 99.313 97.0507L99.5503 95.0648C96.0727 94.6493 92.7085 94.1278 89.4545 93.5077L89.0801 95.4723ZM109.628 97.9503C112.982 98.1389 116.429 98.235 119.971 98.2335L119.97 96.2335C116.465 96.235 113.056 96.1398 109.74 95.9535L109.628 97.9503ZM130.305 97.9608C133.66 97.7881 137.093 97.532 140.607 97.1885L140.412 95.198C136.928 95.5385 133.526 95.7924 130.203 95.9635L130.305 97.9608ZM150.863 95.9664C154.198 95.4996 157.601 94.9575 161.072 94.3371L160.721 92.3683C157.273 92.9843 153.896 93.5225 150.586 93.9857L150.863 95.9664ZM171.24 92.3361C174.536 91.6293 177.89 90.8548 181.303 90.0102L180.822 88.0687C177.429 88.9084 174.095 89.6782 170.821 90.3805L171.24 92.3361ZM191.233 87.4002C192.902 86.9363 194.585 86.4562 196.281 85.9597L195.719 84.0403C194.031 84.5342 192.357 85.0118 190.697 85.4732L191.233 87.4002Z" fill="black"/>
</svg>
